<mxfile host="65bd71144e">
    <diagram id="rNdpo0ja54YhyOUmf1QS" name="第 1 页">
        <mxGraphModel dx="1009" dy="337" grid="1" gridSize="10" guides="1" tooltips="1" connect="1" arrows="1" fold="1" page="1" pageScale="1" pageWidth="850" pageHeight="1100" math="0" shadow="0">
            <root>
                <mxCell id="0"/>
                <mxCell id="1" parent="0"/>
                <mxCell id="2" value="" style="shape=image;verticalLabelPosition=bottom;labelBackgroundColor=default;verticalAlign=top;aspect=fixed;imageAspect=0;image=data:image/png,iVBORw0KGgoAAAANSUhEUgAAAWUAAACNCAYAAABv5WvgAAAgAElEQVR4nO2deXBU55W3n943ba21ta8gBEhgFmE2sxiDMTEkeJuESVxJnGWmJknln5mpSWaSSZz6pmZJapI4mWQ8dmI7M1V4IV7AdiwQi1kECLEJhJAE2veW1It67/v9Qd0bSQjQ0i0QvE8VBXTffu/bt+8999zznvM7KkmSJAQCgUAwLcKAOgLjRGIMgUAgEEQIYZQFAoHgHkIYZYFAILiHEEZZIBAI7iGEURYIBIJ7CGGUBQKB4B5CGGWBQCC4hxBGWSAQCO4hhFEWCASCewhhlAUCgeAeQhhlgUAguIcQRlkgEAgigCpC4wijLBAIBBHggTfK0xG3E8J4AoHgXkV7tycwXcLhMKFQCLVaTSgUor+/H7fbjc/nQ5IkVKob9y+LxYLNZkOn0wGgVquV9wQCgeBeYVYa5VAoREdHBydPnqS4uBiLxUIoFCIYDNLd3Y3b7SYYDBIMBlGpVKhUKmJjY/F4PASDQZqbmxkaGqKwsJCysjLMZvPd/koCgUAAzEKjHAqFaG1tZffu3TQ1NZGUlIROp8PtdqNWq8nMzMRkMmEymQiHw4q37PP5GBwcxG63c+nSJY4cOYIkSXzrW99iy5Ytd/trCQQCAQCq2dZ5pLu7m1/+8pdcuHCBf/3Xf2Xu3Lmj3pe/zu1CE16vl6qqKl555RWysrL48Y9/jFo9a8PrAoHgPmJWecqSJNHR0cFrr73Gc889d5NBlrdRqVS3XMxTqVQYjUYeeeQR8vPzOXLkCE6nk/j4+GhPXyAQCO7IrHEPZSMrSRJ6vZ6lS5eOu91ID1mOJ4/8M/I9m83Gww8/TGNjY3QnLxAIBBNk1hhl2ajqdDqysrLIysq67XYTyazQ6/Xo9XquXr0a6ekKBIIHiEjGgGfUKEcifK3T6UhLS8NgMERgRjcWDt1ud0TGuhOzLHwvEAgmSCSv7BmLKY8MP4yM+U42VzgcDuNwOLDb7RGZUzAYnHYhSjgcpq2tjerqarxeLzqdDq1WSyAQICcnh7KyMkwm07TnKxAI7k0iWfEwowt9Y43xZI2hJElIkhQx7zYcDuP3+9Fqp3YYJEnC6/Vy5coVPvjgAz7++GO8Xi9z5swhNzeXpqYmAF544QU2bdo07fkKBIJ7k1lllAOBAI2NjVy8eJH+/n7gRjWdyWSisLCQlStXTmo8tVqNVqvF4/FMe26hUIhAIDDl4pFQKER9fT1vv/02er2eZ599FoPBwIIFC5gzZw51dXV88MEH1NXVsX79+ikbf4FA8OAQVSshSRL9/f38y7/8C8eOHcNms6HRaHA6nQwODrJo0SJ+/etfk5qaOuEx1Wo1er2e4eHhac8vFArh8/mmHJ8eHBzk6NGjOBwOXnzxRWJjY0e9n5KSwoIFC7hy5QrNzc0UFRVNe84CgeD+JmpGWTbI+/btw+VysWPHDjZs2IDJZMLhcFBTU0NLSwu/+tWv2L59O0uWLJnQuGq1GoPBgM/nm/Ycw+EwwWAQjUYz6c/KlYUNDQ2sXLkSi8UySmsDboRoEhIS0Ol0vP/++/zN3/yNor0hEAgE4xE1o+z3+6mqquLVV1/l97//PTk5OUr4IjY2ljVr1lBfX8/nP/95enp6+NWvfjWhcTUaDQaDAafTOe05yot0UzGUfr+frq4uvF4vpaWlt6wIlJ8Mjh07xnPPPUdGRsZ0py0QCO5jopYS5/V6OX/+PHa7nYKCAjQaDYmJiajVanp7e/F6vaSkpJCfn8/58+cnPmG1Gp1Oh8vlmvYc5YXGqYQvVCoVoVCIcDhMWlqaMt7IPzIGgwGDwUBbW9u05ywQCO5vomKURxom2YMcaaTUajVGo5FgMIherycUCk14bHmRMBI5v7KnPJUFOJ1OR3JyMjabDavVetP7Y1P95KwRgUAguB1RMcoqlQqDwcDcuXOJiYmhra2NUCiE0+nE7/djs9nQ6/UMDAzQ2NjInDlzJjyubOwCgcC4hnmixnpk3vRUxIg0Gg02m43c3NybPOCxBtnr9eLz+cjJyZn0fgQCwYNF1GLKBoOB8vJytm7dys9+9jMWLFhAXl4esbGxNDY20t7ezrVr11i9ejVf+MIX7jievIimVqvRaDS3DV+MXXC7FaFQCL/fT1xc3KS+m4zFYkGn07Fnzx6WLl2KJEkkJyeTlpaGXq8nHA7T2tpKXV0djz76KDabbUr7EQgEDw5RM8pqtZqcnBy+/OUv8/Wvf53du3dTXl5OTEwMLS0tNDU1UVhYyKuvvkpubu6ExpQkCY1Gg8ViIRgMTnlucmjF7/fjcDjIzs6e0hgJCQkUFxdTUVHBpUuXSE9PR6vVYjabsVqtBAIBzp07h8lk4p//+Z+nlOUhEAgeLCJulEd6qXLlXUZGBi0tLRgMBiRJIjExEZ/PR1xcHNeuXcNqtRIbGzsh71alUmE2m28bn51o6XYwGMTlck1ZS1mj0ZCTk8PmzZsZHh7GYDDw/vvvU19fT1ZWFlarleLiYlavXk1MTMyU9iEQCB4souYpB4NBmpqaeP311zlz5gzbt2/n29/+NgaDgaGhIaqrq3n77bf5wQ9+wAsvvMBf/uVf3na8sSXaBoNhXOM7UcMuZ0+43W7C4fCkv588RlpaGl/4whfweDxUV1djs9kwGo2sX7+e/Px8NmzYIISIBALBhIm4UZaN3fXr13nppZfo6enhe9/7HitXriQuLo5QKERKSgqPPfYYmZmZvPLKK1RUVJCdnc2KFSswGo13NKwqlQq9Xj/tucoZEZPxlMcTUgqFQvT19dHW1kZMTAwlJSV88YtfFIUiAoFg0kQ8+0KSJBwOB++++y61tbX81V/9FU8//TQ2m41gMMjg4CD9/f2o1WpWrlzJf/zHf7BmzRp+8pOfcOHChdt6lfJ7Go0mIs1O5VCLnKd8J492bP6xJEkMDQ1x9OhR3n33Xd59910qKyupra2loaFh2vMTCAQPHhH1lOXS6rfeeou9e/fyne98hzVr1ihpZzqdDo1Gg1qtJhwO4/F4sFgsrFmzht/97ne88cYbLFu27I77kVs6RQK5bHsiyN6x2+2mqamJ7u5unE4nFRUVSJJEWVkZQ0NDhEIhKioq6OrqYsOGDZOWJxUIBA8uETXKfr+f6upq/u3f/o2ioiJWr16N0+kkNjZW0UHWarUkJCQwMDCAx+MhJSUFm83GU089xfvvv09ra6uSjXG71LZIhQZUKpVSPDIR4zk0NMTx48f59NNP6e/vx2g0kpaWxvz589HpdLS3t/PCCy9QW1tLZWUla9euFepwAoFgwkQ0fOH1ejl16hQOh4Pt27ej1Wpxu90EAgECgQAACQkJGAwGEhMTlfdVKhVbtmxhxYoV7Nu376YwwUjk9+6G9ynrJ3d0dOD3+0lNTWX+/Pk8++yzPPbYY6jVagKBALm5uWzevJlVq1ZNqoRcIBAIIurCOZ1ODh48yIIFC9i6dStxcXGoVCoGBweVvF45VKDT6YiNjaWzsxO9Xk92djbr1q3jpz/9KXPmzOHRRx+95X6mki1xOyY6nkqlIjExka1btzJv3jycTicLFy4kKyuL/v5+WlpaCAaDxMbGotVqKSoq4oMPPmB4eJg1a9ZEdM4CgeD+JKKestvt5vTp06xZs4aCggLUajVmsxmPx0MwGCQUCikecDgcJhAIYDKZMJlMeDwesrKy6Ovr46WXXrqlJyx3C5Hfn066mUqlUmLcwWCQnp4eLl26RGdn500LevLfOp2OjIwMVq9ezeOPP640cHU4HDQ0NCjxc0mSSElJIS0tjcrKyinPUSAQPFhEPPtCr9eTm5uLJEkMDw8zPDxMYmIiiYmJ+P1+nE4nXq8Xl8uFz+cjISGB2NhYNBoNsbGxbN68mcHBQYaHh8dtGRUIBBgaGppywcdINBqNIm7kdDqprq7mv//7vzl06BDBYJBwODzKIN8Or9fL4OAg8fHxyg0jPj6e9evXs3HjxmnPVSAQPBhENHwhZ0Wkp6fjdDpxOp2YTCYSExORJAm9Xs/g4CAOhwONRkN8fLwSzkhKSsJkMrFu3Tq6urro7OyksLDwJtH4YDCIw+GISExZo9EowkiSJNHV1cWJEyewWCysWrWKuLg4JQQz0gMeGdOWjbXP52NgYACbzTbqZpKenk56erqyrcjEEAgEtyNinnI4HMbn85GVlUV+fj5er5dAIKCkrskVcFqtVvm33+9XjJzH48Hv91NYWMjSpUupr6+/aR8qlYpwOKx40dNFq9Wi1Wq5fPkylZWVdHZ2AtDR0cGePXs4deoUgUBAEUIaG9IY+f/h4WGam5tpaGjg008/paura9rzE8wu7kblpqgWvf+ImFGWC0OKi4vJy8sjPj4eo9GodAgJh8O43W6Gh4dJTU3FaDQyPDysxJsHBgbw+XxkZGSQlZWldIIei1waPZVu2GPRarUYjUY6Ojq4fv06w8PDmM1m1Go1g4OD9Pb2jhI+GikdOhK5YKa7uxuXy0VlZSWHDh26SZ9DeMn3LxMNc0Ua+Tq4XcbSWCazrWDm0fzwhz/8YSQG8vl8XLp0iaGhIbZs2YJWq0Wv1xMMBhWvWG69ZDabMRgMSgcR2Tj7fD4OHTrEsWPHWLZs2bg6y729vXz44YcsXryY0tLSKRs6SZIIBAL09vai1+spLS0lFArR3d1NaWkpn/3sZykoKCAhIeG26m7BYJCGhgaOHz/OwoULKS8vR6/X09fXhyRJE1bAE0yfsSXwgUAAl8uF3+/H5/Mpcq9yjvvQ0BA9PT0AyhPd8PAwjY2NDAwMYLFY0Gq19PX1cfbsWTweD1arFZVKhdfr5eLFi7S3txMTE6PIA1RXV3Ps2DElPKfRaKirq+PAgQMASpPgnp4ejh49isvlIikpCY1GQygUoqqqigsXLhATE0NsbCx2u50TJ05w8uRJjEYjiYmJANTX13P+/HnUarUi5uV0Ojl69ChdXV1KplNHRweHDh3C6/VitVrRaDT4fD7OnTvH9evXsVgsytxPnDhBdXU1Wq1WWee5cuUKVVVVmEwm4uPjgRsL+jU1NXg8HmU7gJqaGhoaGoiNjcVkMgFw5coVamtrsVgsWCwW4EbD4evXryNJEkajUVlob2hoUEKecrpsa2srPT09mEwmRVqhv78fp9OJXq9HrVYrv0d/f7+yGA831nmcTqeymD80NITL5UKSJOWJfWwo8l5wnCIWUw4EArS0tNDT08OhQ4fQ6XTKwQmFQkr7J61WS2dnJ8FgEI/HQ3NzM83NzYTDYXp6evjkk0/IzMzkxz/+8bj7kSRJ6VgyXeQYuNlsJi0tjebmZkpLS8nJySEjI2PUCXerz/f39/P2229TX1/Pq6++ysWLF3nzzTeZM2cOhw4d4pFHHpn2PAV3ZjzP79q1axw6dIjY2Fh0Oh1NTU2sWrWK1atXA9DQ0MCZM2dYunSp0rh3YGCAiooKDAYDO3bswGAwcP36dd58802WLFlCXl6e0k39+PHjSr66rMl9+vRpDh06hNFoJDc3F61Wy7Vr1/joo4/Q6/UsWLBA2c/x48eZP38+xcXF6HQ6wuEwdXV1tLS0kJeXR3p6Oi6Xi4sXL3LlyhUyMjKUdZaOjg7Onj1LTEwMGRkZaDQapU4gMTGRwsJCYmNj6enp4cCBAzz88MMUFRWh1+sVSVmXy6V0zpEkiUOHDlFTU8OuXbtIT09Hp9Nx4cIF3nnnHcxmsyJx63A4+PDDD1m4cCE2mw2dTodKpeKjjz6iubmZv/7rv1ZuHocPH6ayspLvfOc7pKSkKL/L/v37WblyJUuXLlXm/tZbb2G1Wtm5cydpaWm0tLTw7rvv0tPTw9e//nXmzZtHKBTi5MmT2O12Hn30UaUVW0dHB3v37qW0tJTly5djNps5c+YMVVVV7Nixg/z8fPbu3UtLSwtLly5l5cqVN3Wfv++McigUoquri/3791NfX49Op1OU3CwWi3JXlUMAgUAAj8dDe3s7drsdk8lETEwMS5cuZevWrcTExIx7kORHL/lON13k1lSxsbHMnz+fkpISEhISiI+PV7zp21UPtre3c/z4cVavXq3ctYeHh3G5XBQXF+PxeBSvQRBdHA4HXq9XCZ05HA4aGxtJS0vDbDZz/fp1xSjCn1uLjSyzl43pyPM3KSmJlStXkp2drXhXBoOBJUuWIEkScXFxyrm6atUqcnNzlQpPgLKyMhISEpT0SbixALxz504SEhLQ6/XKOb1p0yZ8Pp+yOJyWlsaOHTtwu92KAZLHzMnJITExEY1GgyRJxMfHs337dgwGAwkJCUiSRE5ODp///OdJSUlRHBmj0ciqVasIBAIkJycrYz7yyCMUFhYyd+5cdDodkiRRUlLC9u3bR3XNiYmJ4eGHHyYjI2OUbkxZWRnp6emj2qPl5+fjdrtHvRYTE0NWVhbx8fFKFpVarSYxMRGr1apUwOp0OmJiYvB6vcpr46Wqwg3743A4GB4eVn6LgYEBmpub8Xg8qFQquru7aWpqIjc3l2AwiCRJNDQ0EAwGycvLm1KvzmigkiIUXBoeHmb//v1UVlYqve/kxb+xRklWZ5PzlOWMjfT0dNasWUNaWhparZZwOHxT6lttbS3f/va3+e53v8tnPvOZKc9XkiRcLhd1dXUYjUbmzp3L4OAgoVAIs9lMQkICoVCIYDB4048l/+hysczZs2d55plnmDdvHv39/Rw5coRLly5hNBqZN28e69evx2w23zN34vsN+RSura1lYGCARYsWERcXp8T55cdhOVQgG4iRi9GyAZVvxCMXpcfua6yM7ET+PZH5T2S7W20znXPrVs7PyDndapuR33NkX05523A4TDAYRKvVKtey/JocVpCVJYeHh9Hr9ej1emVRX5bWlUNJAC6Xi1AohMViQaPRoFKp8Pl89Pf3Y7FYiI2NRa1WY7fbGRgYID09HbPZTEtLC8PDw1itViVkVFNTQ3NzM2vWrCE5OfmeuD4j5imbzWaefPJJnnzySeXHcbvduFwu5a4Pfy5Vdrvdig7GrRgvF3mkUtx0GNlayu/3YzAYRnki8j7G2498El29epW6ujq+9a1vKd8jMTGRTZs2oVaref311+ns7CQjI4NFixZNa76CWyNfSPKFKysIyimNt8JoNN4kbHUnWVh5X2NTNe/074nMfzrbTceYTESXfOT/ZWM89liMN45arb7peI73mlynMHa7sa8B4zaMMBgMZGRkjHpNro+QGa9H5pIlS4iPj8dsNt8TBhmiJN0JKJ6y0Wi86ZFDruybrPymfDJoNJqIiPzI48gZIpOhq6uLo0ePkpiYOOrGolKpiImJoby8nI0bN9LX18eJEyfumR/8fiY/P5958+YJAagoMxPn8mQzSqZDYWGhYotaWlrweDxR3+ftiEo3a7hh8OLi4kbFkuDG3c9isYyKcU1l7Egs9Gk0GgwGg7IqP5kTwO12A7B9+/ZRr8tj2Gw2Vq1aRTAYZGhoiHA4LAxzFOju7qajo+NuT+O+ZqZT6Nxut5Lz393djcfjiXrKoXxt7t69m0uXLikCaneDqHQeudNr033UMhgMSnrNdJCNstfrnfS8MjMz2bFjx6iFkrFjZGVl8fzzzyuLloLI4vF46OnpUfRIJstEY7nRxu12K+sZcXFxd8z6iTQjY8PysXA6nXR0dNDQ0EB6ejrz5s2LSGOJiVBVVUV3dzetra14PB6MRiNWq5Xs7GzKy8uxWq0RkVkYD7PZrOj03K3OQbPqOU9eoU5MTBw31jRZ1Go1arVaMcqTwWKx3PEkTUpKYtOmTaNeE4t9kUFOjczIyJhyU1qfz4fX68VgMGAwGKJ2od8OSZJobGxk3759dHR0UFRUxNy5cykrK5vSjWY6yNo0Ho+H48ePc/jwYc6fP8/cuXN59tlnKS8vH6XtEg2cTifvv/8+Wq0Wq9XK4OAgTU1NtLW1ERcXxze/+U02bdoUNcP8wgsvANzVENisMspyPDkuLm5UAH86jGyeOhMXpTDIkUM2xlM5pidPnuTTTz9VPLBwOExvby8ej4c5c+awaNGiqBggWfzq4sWLOBwOMjMzuXz5MufOnUOj0dDR0cG1a9c4deoUOTk5rF69mqKioqh69XLec3NzM+fPn1cWv1NTU9m8eTNarZZPP/2Uvr4+VqxYQVZWVlTSxw4ePMjp06dJSEggIyODtWvXEh8fT09PDzU1NbS1tbF//36am5v5whe+MCrFMFJEIiw6XWadUZYrdpKSkiLidQaDQZxO56QbqMrzEdwdRqZqTfY88Pl8SveYzZs3EwgEGBwcpL6+nvb2dk6ePElHRwdPPPGEUsU2XUbGRM+fP89HH31EfHw8V69epa2tjUceeYTHH38cvV7PxYsXefvtt/njH/+IXq+nsLAwInO4HRcuXKCyshKn08nKlSvZsWMHKSkpyrH9+c9/rhjEp556ijlz5kTs/Jckib6+Pt555x2qqqr46U9/qhT4wI2cbjl76fvf/z4vv/wy5eXlUTHKMt3d3UpV5Ew/3c4qoww3PNv+/n56e3uVktXpIqfHCWYPHo+H3t5eDAbDpM4DuWAgJSWFv/u7v2PRokUYjUbC4TBDQ0PY7XZ++ctf8vrrr5OVlcXatWsjMt+RMduGhgaMRiOZmZm0tbWRmZnJxo0bycvLA26sV6Snp7N3717C4TD9/f0kJSVFZB63oq+vD4/Hw5YtW1i/fj2xsbGjbiQrV66ko6ODc+fOkZaWhtVqVSr0pkswGOTo0aO43W5WrlxJcnLyLQ3h5s2bqaqqiqqRlCSJiooK1q9fT2Zm5owb5VlnieLj4yktLeWDDz7gk08+4dq1a5NOYQmHw9jtdg4fPkx1dTWLFy+e0YUVwfTp7Ozkj3/8I8ePH5/UBdPU1MSHH36IwWBg+fLlo1QMExISKCgoYPv27dhsNlpaWiI+b5VKpSzqqdVqysvLef7555k7d+6o3N/S0lK+/vWv4/V6OXPmzKjGDtHA7/ezcuVKVq9erVQojmTp0qU8/vjjJCcnc/DgQerq6ggEAtNewJakG82Wa2pqMBqNPProo9hstpu2kf8uLi6mqKhI+d2itYB+5coVent7CYVCM/5EPOs8ZZvNxpe+9CVef/11XnzxRRYsWMCyZctYu3YtOp1OETiRPV+v14vP51NOoHA4TGtrK5cuXaK9vZ2CggI+97nP3eVvJZgsfX19VFVV4fP5JvW506dP09jYyPLly0c9HY2sTFu/fv0dy+ungiwvAJCcnMzmzZuVHPfxYsZJSUl0dXUxPDzMihUroloGHAqFyM3NVbTPxz45qlQq1q9fT3V1NW+//TbNzc0sWbIkIgtisnDU4sWLWbly5U0ho5HHxO12K+HGaCFneAUCAUKh0Iw7bLPOKMONSp2dO3fS19eH3+9XKgfD4bDyY5lMJqWRqc/nU1JcJElSegauXbuW5cuX3zM174KJk5aWxuOPP05mZuakPtfX14fFYhlXvW/kxS+L/ESa/v5+wuEwSUlJirbGeN6eSqXi+vXrOBwObDbbjBmGO0nilpSUoNFoFEW36aamqlQq0tLSWLhwoVIefTuamprw+XzKdtHyYh966CHS09PvyhP0rDTKKpWKnJwcXnzxReW1cDiMy+ViaGhI0auQlerUarWinaxWq1mxYsVdnL0gEuTm5vLFL35xQtuO9EIdDgdut1sR8bnVRR2tFDmXy4Xb7ebixYssXLiQBQsWjFum7PP5OHLkCA6Hg7y8vKiLWslhlTsJaHm9XmJiYmhubqa3t5e0tLRpG0a9Xs+2bdt4+eWXSUtL4+GHH1YcqJHzU6lUXLhwAb1eH/Xj8cQTT0R1/NsxK43yeKjV6lFaB2N/UIFAkiTFy6uvrycrK2vcsIHT6eTcuXMkJCREPPMhMTGRgoIC2tvbOXv2LEajkaKiopu2q66uprKyktzcXIqKiqLusc2bN4/jx4/T1dVFeXk5hYWFo3RB+vr6uHbtGlVVVRQXF7No0aKbqnWnQ2pqKomJiXz00Ud0d3eTnJysVMHK+s7d3d3U1NSgVqvvWmHHTHDfGGXBg4XH48HhcGAymW4rOgSj0+fmzZvHhx9+yLlz55SGtvLFL3vGZ86c4X//93/ZuHHjTcU/00XOrzcYDHR3d3PhwgVSU1MVWdtgMEh/fz+VlZWEw2E2bdo0I40Sli1bxr59+3j77bepqqriueeeY+HChRgMBgYHB3nnnXc4efIk8+fPZ/v27ZSWlt7xuE+Wp59+mt/97nfs3r2bUChEKBTC5XKh1+vJyMjA4/Gg1Wp5+OGHI1anMB59fX00NjZSUlIS8e84ESIm3SkQzCSXL1/m8OHDFBcXs379+gl/rq+vj4MHDzI0NERKSgqBQACn00k4HMZgMCjG3uPxsG7dOtasWRPxuR89epTOzk5Fs9vr9dLd3Y3P5yM1NVWRhZ03bx6LFi2KiKTARDh06BDV1dX09fUpx2Pp0qXExsZSXV2N1+vl6aefZt68eVErZpEbXTQ1NXH69Gn6+vpYvHgxubm5pKamkpmZSUlJCTabLWpVd9XV1bz11lu88MILM5IjPhbhKQtmJX6/XzGekyE5OZmnn36ay5cvU1FRwaeffsrx48cxGAxkZWVhtVrZtWsXn/nMZ6K2ALx69WpFa7y3t5eamhoqKiq4cuUK27ZtY926daxevfqm1LBoIRvYRx55hHXr1jE0NMSPfvQj9u7dS3p6Ops3b2bFihWKrEA0qwtTU1PZtWsXLS0tOJ1OFi5cyAsvvEB+fv6MhSStViuLFy9WpBxE8YhAMAEKCgp45plnpqyBMm/ePFJTU5EkiTNnzjBv3jw+97nPUVhYqDy2RxO568nQ0BCpqak88sgjxMfH89hjjyme/93SSZE9eLmnZnJystKkIdKMNbRymXlnZyf19fWsXbt21JPCTIhI5eXlkZWVddf0L4RRFsxKYmNjp2yQ5QvbZDKRkpJCXFwc5eXlfOUrXyEcDkdymrfcvxyiOHfuHP362FIAAB61SURBVA6HQwmhjMy/nSmDPLLa0O/309nZybVr1xgcHOTAgQNKR6CRxzvSc1OpVJw/f579+/fT1NREMBjkypUr5OTkMDQ0RHJyMmq1elQhSbSOz0gR/rsR3Z11FX0CwXSQL7KhoSEOHz7M/v37sdvtSon1yKq6aOJ0Ovn000/p6emhr6+Pmpoarly5wuDgYNT3fSuampp45513+P3vf4/L5cJqtWIwGDh8+DCNjY3KdtEwyH19fezZs4cPPvgASZLIz8/HYrFQU1PDxx9/TG9v76h9R+s3kiQJv9+Py+UiGAxGdV+3QvPDH/7whzO6R4EgArS3t1NZWcnQ0NAdhWlGirQHAgHq6uqoqqqiq6sLSZLo7e3FZDJhMpnw+XwkJCRErDHv2HmoVCrOnTvHiRMnOHz4MDqdjuzsbM6fP09XVxdxcXGkpqZitVpnpHDB5/Nx4sQJDh06RG1tLf39/cTHx6PRaAgEAuTk5OD3+/F4PNhsNuLi4iJ6XCRJYu/evRw4cACdTsf8+fNZu3Yt69ev58qVK5SVlWG1Wunv7yc2NhaLxTKqB2CkUalUXLlyhXfffZfMzMyICVJNBmGUBbOSq1ev8uabbyJJEsuWLbvj9rJRrqmp4Ve/+hWDg4M888wz5ObmcubMGaVEv7a2loSEBGw2W1Til8PDw7z33nt88sknqFQqHn30UbZt20ZbWxtqtZrOzk66urooLCyMatoX3LhBVVVV8T//8z/s27ePBQsWsGvXLtatW0d3dzd+v5+kpCTUajWXL1/G5/ORk5MzZf3qsYRCIaqrq/nTn/6EwWDgc5/7HFu2bKGoqIiYmBja29v5zGc+w8qVK3n11Ve5fv06RUVFSvpgtLh69Sp79+5l2bJlERNdmgwipiyYlWRnZ/PMM8/c1PllPORGt6dPn+bgwYMkJSXx2GOPUVhYyMmTJ5EkCaPRiNlspr6+nsrKSmJjYyksLIzoxX/x4kUqKytxu92sXbuW9PR0Fi5cqAi6b968mXA4zP79+zlz5kzUdItl5K7Sy5YtY/ny5WzevJm0tDTC4bDSlWfjxo0MDw9TUVFBRUUFBQUFbNiwISKLYJIk4fF42LlzJyUlJVgsllFdsOfMmUN8fDwJCQmsWLGC6upqOjs7SU1NjeoiXHFxMV/72tdmvMmAjDDKgllJamrqpLyYzs5O3n33XWJjY/n7v/97RQjI4/Hg8XhISUkhPz+f5uZmzp49C6B40pGiq6uLixcvsmbNGj772c8qHl8gECAmJoaMjAyWLFlCKBTCbrfT09NDdnZ2xPY/FoPBwLp163jkkUduCgnIKnaxsbGsXr2ahIQEXnvtNUVHJhJGUavVsm7dunHfk1X75JvSrl27mDdvHvDnUu9oYbVaKS8vv2tyvsIoC2YlkiTh8/mQJOmOOghyGGLFihVkZ2eTkJAwKsYcCASIi4tj7dq1xMXFsXfvXux2O3a7PaJGecmSJcrNZGQmQygUIisri5SUFKxWK9u3b+fs2bPY7XbS0tKi2g1jPMOjUqmUZr9yXHvJkiXo9XoSEhJmJNbt8XgUtUe54nLRokX09PRE3Vj6/X4aGhrIzc2NSNu5ySKMsmBW4nK5OHXqFEajkZUrVwK3j/3m5OSMa2Bl6U+DwYDZbGblypUkJiYyMDBAbm5uRFOvEhMTx40Ty70GZe89NTWV0tJSwuHwXUnJkiSJnp4e/H6/YoA1Gg2LFi2asa7sXV1d+P1+JQ1O1sBIT0+P+v4HBgZ49dVX+drXvkZxcTEwsxkYwigLZiXBYJCuri7FS77dRXO7Dus+nw+LxTJKXEe+ECPNeLKYkiQxMDBAR0eHooymUqlIT0+PyhwmglxqPt4NaSYe6d1uN0ePHlXE7EfOYSaMo06nIycnB5PJdEcp02gg8pQFs5K4uDjWrVtHeXn5tMax2+0Eg8EZe0yV86BH5kPX1NRw4MABuru774pnPJa6ujocDgdGo5G+vj5cLteM7v/ixYu8+eabeDweRUJ1Jj3V5ORkvvnNb0Y1nn87hFEWzErUajUZGRlkZmZO+YINhUL09fUpYkAziWx8XS4XVVVVXL58Wanmu5uG2el0UlVVRWdnJ06nk/3791NfXx/VTh8y8veuqKigs7OThoYGhoaGor7f8YiWnvZEEEZZMCuZbuWd0+nk+PHjdHR0UFxcTDgcpqenJ4IzvDVyMYskSezfv1/pM3nixAlaW1tnZA7jzcnpdHLkyBFOnjzJggULKC0tJRAIcPDgQa5fvz4jN4sLFy5gNpv56le/SltbG++99x49PT0zdqOS4/her5dQKCTKrAWCieLxeGhsbKStrW1Kn6+rq+PDDz8kFAoxf/58rl27xqlTp/D7/RGe6fjIN5Tz58+Tl5dHXl4e7733HufOnQNm1luWbxANDQ28//77XL9+nW3btrFr1y7mzp3LhQsXaG9vj/o8uru7ef3113nooYf4xje+QWlpKRUVFZw8eZLh4eGo7x/+fNxPnz5Nf38/MPNl1mKhTzAr6e7u5oMPPiAjI4Nnnnlmwp+TJIlgMIjdbicvL4+ioiJ6e3upq6ujtrYWi8XC4sWLlUyIaBEKhTh79iw5OTksXbqUoaEhXC4Xly9fZvny5TO+0KdSqThw4AC9vb08/vjjFBYWkpCQQHJyMlqtluvXr1NaWhrRbiMwWvXtk08+wWAwkJGRgVarZcuWLahUKurq6pg3b17Ei3nGQ45f19TUKAvAM93l5L71lEc+Io78I7g/CIfDdHR0TNqDU6lUtLS0YDab2bZtGxs2bGDLli0sXryY3t5ePvroI2pra6N6vsj6Cq+99homk4mFCxdSXl7O5s2baWho4NixYzO6uKZSqfD5fLS0tLB06VK+/OUvk5+fD0B5eTkPPfQQp0+f5sqVKxGPLcuqfO3t7TidTp577jmlPZbVauXpp58mPz9fiS9H+xqWjb7RaMTv98+IauBYZq32hazmJKfvOBwO7HY73d3d9Pb20t/fT19fH729vdjtdgYHB5X25P39/fj9/qhWBQmii06nw+v1kpSUpFR63QlJkrhy5QqVlZVYrVZKS0tRqVQYjUaGhoZobm6mq6uLpKQkioqKoiJKBHDkyBFee+01wuEw69atIzMzE61WS0xMDHV1dTQ0NJCXlzdjIvdut5tPPvkEk8nEtm3byMrKUr632WwmNTWV06dP097eTkFBQUSfIlQqFY2NjXz88cdKI9mRxTJqtZrU1FT27dtHdXU1OTk5ERdFuhXp6enExcXN+ILfrAxfBINBmpubOXz4MHa7Ha/Xi8FgwOVyMTg4qFRpyX2+5E7WsvJWb28vVquVjRs3UlZWNiH9BMG9hcViYe3atZP2nKqrq2lpaVHaPMmfLy0tVWQ0r169SmNjIwsXLozonOW83/3791NbW8t3v/tdlixZohiYgoIC8vLyqKyspLW1lZKSkqhW88nU1dXx0UcfsXPnTubMmaO8Ls8rNzeXJUuWsGfPHpqamiJa5ahSqThy5Ajd3d08+uijSneTkSQnJxMbG8vvf/97lixZQmZmZlSrCiVJYsmSJcr8ZppZ5ykPDAxQUVFBU1MTFRUVWK1WzGYzcXFxmM1mYmJilK7WspiJ/CcuLg6TyYRWqyUcDlNfX09zczNz586NestyQeSxWCyjRGxuh2x8ZaUzWQhIRhYFiouLo7e3F7PZTF5eXkS9JHmeLpeLBQsWsHr16pukIQOBAHa7naSkJHJzczEYDFE3DHK/wLKyslt6wUlJSRiNRubOnRtx5bTBwUHKysooKCi4Zfw2LS2NpKQkMjMzSUlJiWqcd2we+Uwz6xqnNjU18f/+3/+jvLycjIwMNmzYgMlkQpKkO15AcnxIrVbjdDo5cOAAhw8f5rHHHuPxxx+fiekLIoQc8w0Gg0iShE6nu+XvP/IUl73VkRfc2Pfr6uoAmDt3blTUyNxut6LCNvbCD4VCHD16FKPRSGlp6U0VbdHA6/WiVqvR6XS33VcgEECtVs+I9sWtsNvtWCyWqKnnhUIhTp06hclkumvO2qwJX8gXkyRJuN1uent7+eIXv4jRaJzwI+zIizE2NpbHHnsMnU7Hhx9+yIYNG6Lel00QOeTfsbGxUWkHX1BQMOq9sduO995478sLTdGSh7xdd2qNRsPSpUvRaDQYjcao7H8sE93PTGchjEe0Nabb2tr4zW9+w0MPPURWVpYwyhMhGAwqC3UGg2FSq+RjL0iz2YzVaqWhoQGXyyWM8iwkFArR3NyMTqcjMzMzIoZsJuK4t0M22nerceq9ykwcDzmevHDhwrsW0px1RlmtVhMfH68sSIzMc5zMjyZvazQaSU9Pj5hotxxGGdvgUVxckUelUjF37lxSU1MxGAz3hCcXacae01MxTLf7zMj3xnZaGevsjDfG2G7U0WS8kFMk9jnyKTwvL49vfetb0x5zOsyaPGX54MsLMnK60kiDN5UfaGTn2kgTDocJBAJRGVtwA71eT2pqqtJXLhgM4vf7p51nfK8stdwuFDOW8b7zrY7DRI7PVNXZInHsZrLGYGBggIMHD2K326O2j8kw6zxlSZKUrggw/Tul1+ulo6MDj8cz7SaJcov2a9eucfnyZfR6PUVFRVGTghTcjMPhwO/3k5iYOOWb7b1gkMPhsHKeywtrsiaD7EjI5778nc1ms7Iw6HK5cLlcxMTEYDablaYAdrsdo9E4Kv+2tbWVUCiEzWZT1miam5sZGhoiJydHqeLr7u5meHiY1NTUUSGW+vp6jEYjGRkZ6HQ6BgYGuHbtmtLSKSEhgUAgQHNzMwCZmZlKaMDhcNDa2kpiYiIpKSlotVp6enro7u5WcpLl/fT09GA0GomJiVGOydDQEGq1GrPZPOUFyNraWs6fP09hYSFJSUlTGiOSzDqjHA6H8fv9EXtUkotQnE7nlJL15Qs4FArR0tJCZWUl58+fp7W1FYvFQnZ2NmVlZWzcuJHU1NSIzFlwa7Ra7U1VZ83NzRw/fpyysjIyMzO5ePEiXq+XxYsXKxfh8ePHuXr1KuXl5cyZMwe1Ws358+c5e/YsZWVlLF68GLhhmM6cOUNycjKLFi1Cr9fj9/s5c+YMLpeLRYsWKXnvFy9e5Nq1ayxcuJCCggIkSeLatWv09/eTl5enpJb5/X6uXLmCXq8nLy8PvV5PT08PDQ0NZGdnK3nBfr+fpqYmRe9Xjp93dnZit9spKChQXpM1mvPy8pS0QZ/PR3d3N3FxcVgsFjQaDeFwGLvdrtzIZKPucDjo6ekhLS1NOY7Dw8MMDQ1htVpHPfI7HA7gz9eC3+9ncHBQ6QEov+d2uwFG/T7BYJChoaFRi59ut5uuri7lCUjerre3V0l9lQ3w1atXUavVzJkzh5iYGFQqFWfOnKG7u5vy8nLl9718+TLXr18Hbgjob9myRenBFx8fz8aNG++ZeoVZZ5QlSVJScyIR+JfHmY5EoCRJtLa28sorr9Da2kpubq6SYzo8PMyxY8dobW3l85//PFlZWdOar+D2yJ7VSMxmM/Pnz8dkMhEOh3E6nXg8nlHGweVy0d/fj9frVYyLx+NhYGBg1GvBYBCXy6V4nzJyr7+R3UICgYCiNiYTDAYJBAKjtpNT++4kqC6vgYxN/ZONkWxQJUkiJiYGm82G2WweVTqckZGBwWBQ1lDUajV5eXmEQiFF1B1uFLJkZWURExOjzMlms5GcnKwYfnn9ZP78+ej1eiWlLikpiRUrVihzghuZG8XFxUiSNGpBPSEhgUWLFo2aU1paGhaLhfj4eGXfarUam82GXq8f9f1lHeyRr8khrJEl0iOF+/v6+kaFFcvKym55zO8GEc9TDofDSl+t8fJGRy6GTYX6+nq+973vsWvXLrZv3z7lcWSDfurUKf7pn/6J733ve0qV12QYWV3o9/spKipSKsF0Oh06nY5Lly5x5MgRSkpKKC8vvyttyx9kZAlGueebXO058gKXjafBYFC8sGAwSDAYRKfTjXo0DgQCqFSqUQuLskd4q0foWy2S3SpfejrOxtjFu4ks8t1pvFvNKdoZEdNZ0Bs5t5FGOhgMYjKZ7mq+9e2IqqcsSTdaiPf29qLVapVKnOncB+TFs0hVWskLhVORbJSkG618/vSnP9HZ2cmPfvSjcU+iFStWUFxczKFDh9izZw9/8Rd/oXQyFkSfsReffLMcyXipdONtB+OnzE0le2cyi3hTHXeybbImu91MZVxM5gYy3nZ3O81xMkTcKMtecnNzM2+88QZwQ9gjFAopmhM7d+6csjThyPDFdE4I+bPyoslUdXTb2to4c+YMO3fuvGnskcTHx2O1WnnjjTcoKSmZklcuEDyoTOUGMludnoinxIXDYbq7u3njjTfYvXs3bW1t5OTkkJqaSldXF3v27OF3v/vdlNNPJEm6ZWhkKmi1Wkwm05RT12SFugULFtzxbi6XAtvt9jvGDwUCwYNJxD1lj8dDRUUF+/bt4/vf/z4PPfQQeXl5aDQaysvL2bNnD7/4xS8oKipi586ddzWuI8cZp1oFJsfHPR4PbW1tt1WvUqlUSnzybjVkFAgE9z4R9ZSDwSCXL1/mtddeIyEhgaeffpq8vDwCgQAulwuLxcKGDRuw2Wy88sor1NTURHL3U0IWYpmq5200GnG5XHz88ce3HWNgYIDGxkYyMjLIzs4WJbQCgWBcImqU/X4/tbW11NTUMGfOHDQaDVqtFp1OpySzJycns2rVKs6cOUNVVdWk9yGnD0WiI8DIuPJUDKRKpSIrK4sVK1bc1MdsZGjC7XZz8OBBjh49yubNm++JBHWBQHBvEtHwhUajwWazkZKSQktLC/DnpHE5gb2vr48rV66QlJSkqHpNBrmi717wNFUqFTabjS9/+cscPHiQDz74AIDU1FQKCgqw2+3U1tZiMBiIj49n7dq1lJeX37XW5QKB4N4nokZZr9dTVlbG+vXr2b9/P93d3SQlJREMBklISEClUnH+/HmqqqrYsWMHq1atmvDYY3Mv75VFMq1Wy9y5c0lKSuLAgQN8/PHHnDt3jrKyMgwGA/39/SxfvpwdO3aMqo4SCASC8YioUVapVCQmJvL8889jtVr52c9+RmxsLLGxsajVagYGBhgeHuYb3/gGW7duHbf6aqaRe6NNV2EsKSmJHTt2YDAYOHDgAO3t7Tz//PPk5uZSWFhIWlraPeHdCwSCe5uIGmVJktBoNKxYsQKbzcaXvvQljh07RmJiIuFwGI1Gw1NPPcUPfvCDSYnTRxO1Wh2xTgZ6vZ60tDQSExMxGAysWLGC/Pz8iMoMCgSC+5uopMSdOnWKQ4cOUVxcTElJCTabjWAwSF9fH3q9njfeeIN169aNatI4GSJpzEOhEG63OyIG0+1209jYiN/vJyEhgdOnT9PX18eSJUsiptUhEAjubyJqlOUc5Z///Od0dHTw4osvsmTJEgoLC/H7/Vy4cIE9e/bwk5/8hAsXLvCNb3yD+fPnT3o/kYwpBwIBhoaGpjTeSB0PuaHrnj17sFqtbNiwgUAgwC9+8Qu++c1vsnr1amGQBQLBHYloGkB/fz///u//zvXr1/nSl77EE088gdVqxe/3o1arycrK4plnnqGsrIx33nmH3/72t5Maf6SqVqQIhUJ4PJ5JF7GMvDEMDw9z+vRppbv2nDlzSE5OJisri7q6Og4fPqzIFgoEAsHtiIinHAqFaG1t5Q9/+ANz5szhK1/5Ck888YRSKTc8PIzH48FoNFJUVMQ//MM/8N5773H16lUOHDjA+vXrJ5wmNtIwRyJWGwwG8Xg8k17oCwQCtLa2UlNTQ1dXF4mJiWzduhWj0cju3btpbW1l06ZNrF+/ns7OTioqKjCbzTz22GNTnqtAILj/iYinPDw8zDvvvMP//d//8Y//+I989atfxWazKfKGHo8Hl8uFWq3GYDCwbNky/vZv/5atW7fyn//5n7S1tU1539MNCYTDYXw+36THkYXJKyoqcDqdLFu2jB07dpCSkkJPTw+XL18mLS2NJ598ktTUVNxu9z1RwSgQCO5tIuIpDwwM8Oabb7Js2TJsNhv9/f2YzWYMBgM+nw+z2ayIgrvdbgwGA3q9nuLiYrq7u/ntb3/Liy++eMf9jO3HF4kYrSwFOtkKQZ1OR15eHk899RSLFi0iNTVV8d59Ph8ulwuVSsXChQsxGAyKGLhAIBDcjml7ynI7mPb2dnbt2qX0EbPb7Xg8HpxOJ3FxccTFxREbG0s4HGZwcBCHw0FKSgrbtm2joqICl8t12/2MleSbblx5ZBgkFApN2sAbDAZKSkp49NFHFdH6kcUtOp0On8+H1WqlpKSElJQUpaWQQCAQ3IppG+VAIEBfXx9r165l2bJlWCwWpdHi0NDQKA9UrVZjMpmUhb+EhASeffZZtmzZwltvvYXH45nwfuVOD5FiqnnKYz12WXVOkiSlJ1hMTAx5eXkRmadAILi/mbZR9vv99PX1sWHDBqxWKyqVCq1Wi0ajQa/Xo9VqFcMsx2+tVqvSEj4tLY0tW7bw8ssv09jYOOH9jm2OOVVkj3kqnQnGC6HIjSAbGxs5e/YsQETEkwQCwYPBtIyyHLqoqakhJSUFr9eLw+FgeHgYo9GI1WrFbDbjcrmw2+0MDQ0RCoWUsma5JZJGo6Gnp4fdu3dPat+RINI5z11dXXR3d5OdnU1mZmZExhUIBA8O0zLK4XCY/v5+zp07R0ZGBg6HA5fLhVarVVqDWywWxXh7vd5RrcTlrh+SJJGRkcGf/vSn6X2bKSIXgEzXOA8ODtLW1kZRUZGSpwwIVTiBQDBhpu0pu1wu/H4/2dnZSpdfuVW5/EdulhoKhUbJbo7Mxpg/f/6U++RNF7VajVarnXY2R2dnJx0dHTz33HM0NDTwySefAELzQiAQTJxppcQFg0F6enpwuVwkJSXh9XoJh8M4HA7UajVxcXGEQiG8Xi9xcXFKSyS3243ZbMbr9aJSqbBaraSkpEzIeMnhjkghjzfdbrfNzc189NFH5ObmsnXrVoLBIK2trdTV1VFSUhKh2QoEgvudaXnKwWCQtrY2hoaGlBhxTEwMAC6XC5/Pp8SXExMTsVqtGAwGXC6XEuqQZT3PnTs3ofCBvJAIkYsryx2tp4okSTQ3N3PhwgU2bdpEamoqzz33HIsXL+YPf/gDfX19EZmnQCC4/5mWpxwIBGhra6Ovr4+XXnpJKZKQJAm/349WqyUUCmG1WpUiDfkzDoeDUChEQkICADabjS1bttxxnyPDITBa/H4qqFQq9Hr9lL1vn8/HhQsXOHHiBE899ZQSR46JiSE7O5s33niDP/zhD3znO9+Z8hwFAsGDw7SMsrxAplar+fWvf32THoWcCiZ7tnL4Qg5bJCcnU1BQQHFxMd/+9rcpLi6+4z5lrzZSMpiyyP1UF+MGBgbYt28ftbW1fPe731U0NCRJIjs7mxUrVnD06FF27dpFcnLytOcrEAjub6ZllE0mE08++aTiHfr9frxeLy6XC7PZjFqtJhwOK8ZaLhpJTk7GYrGQlpZGTk4OSUlJ2Gy2Ce1zpFGOBFqtVknNm4qhV6vVZGZmYrVabxI1slqtfPazn0Wr1fJf//VfbN68mfLy8ojMWyAQ3J9MyygbjUYefvhhHn74YQClhDoUCpGYmDgqJOD3++nt7SU2Npa4uDjC4fCUhN9loxypggytVovFYply+CIhIYEnnnjiptflMEtRURFPPvkkr7zyCkeOHBFGWSAQ3JZpGeXxjKkcDhhr5NRqNbGxsUqeshwumIpnKi8mRgKtVovVap3yQp9eryc9Pf2W76tUKvLz8/na175Ge3v7VKcpEAgeECLaeUQ2mON5wCPDBNNBr9eTnJxMMBicVlxZ/pxOp5uWUZ4IGo2G/Px88vPzo7YPgUBwfxDxUrPbecCRWJgzGAxYrVYaGxsjMp5KpVIWKwUCgeBuM+ssUUxMDGVlZdjtds6ePTtlYaJwOExrayvHjh1j/vz5oqmpQCC4J5h1RtloNFJaWkpubi67d+/mww8/pL+/f9Lj9PT08PLLL/P++++zfPnyKMxUIBAIJk9EY8ozRXx8PEuXLuWll14iPj6eYDBId3e38m85DQ9QZETl8IRcGt7V1YXf72fbtm2Yzea7+XUEAoFAQSVFsjX0DNLe3s5vfvMbgsEgw8PDdHd3ExcXR39/v7KoaDAYiImJwWQyodVqCQaD2O12amtryc3N5bvf/S4lJSUR1dIQCASC6TBrjbLf76exsZH6+noA4uLiFIlQWYfDYDBgNBoVbzkUCuFwOOjt7SU3N5dFixbd5W8hEAgEo5m1RhlG616M/fdkEAt8AoHgXmFWxpRlxhrTkcZYGFqBQDAbmdVGeSTCCAsEgvuB+8YoCwSCu0m0o6APjtMljLJAIIgQkTLMsgEeO96DYZhnXfGIQCC4F5m1+QL3HMJTFggEEUDFDcM81pudirEe+RnVmL/vf4RRFggEEWJyhnOiPTkfJIMMInwhEAjuEiqVSmRNjYPwlAUCQQQYz7iOF84Q3In/D7fxvHURkYLuAAAAAElFTkSuQmCC;" vertex="1" parent="1">
                    <mxGeometry x="50" y="20" width="357" height="141" as="geometry"/>
                </mxCell>
            </root>
        </mxGraphModel>
    </diagram>
</mxfile>